<svg width="22" height="22" viewBox="0 0 22 22" fill="none" xmlns="http://www.w3.org/2000/svg">
<path d="M8.47139 12.7907C8.33963 12.9124 8.25935 13.0798 8.24698 13.2587L8.02595 16.4564C7.99786 16.8629 8.35614 17.214 8.6543 16.9363C8.69977 16.894 8.74425 16.8485 8.79036 16.8014L10.3186 15.2992C10.5669 15.0551 10.9565 15.0295 11.2346 15.239L14.8126 17.9341C15.5576 18.3611 16.0825 18.1363 16.2834 17.2292L18.9496 4.37957C18.9496 4.37924 18.9498 4.37893 18.95 4.37868C18.9503 4.37843 18.9505 4.37811 18.9505 4.37777C19.1865 3.24548 18.5521 2.80274 17.8263 3.08056L2.15416 9.252C1.08457 9.67903 1.10076 10.2923 1.97234 10.5702L5.6632 11.751C5.86323 11.815 6.08138 11.7862 6.25798 11.6725L15.286 5.86229C15.724 5.56398 16.1222 5.72904 15.7946 6.02735L8.47139 12.7907Z" fill="#179CE7"/>
</svg>
