<svg width="17" height="17" viewBox="0 0 17 17" fill="none" xmlns="http://www.w3.org/2000/svg">
<path d="M10.5025 0.0067403C10.3129 -0.020441 10.1224 0.0356205 9.97086 0.156238C9.8151 0.278554 9.71775 0.455232 9.69659 0.653147C9.65172 1.05322 9.94038 1.41507 10.3399 1.46009C13.0954 1.76758 15.237 3.91406 15.5469 6.67806C15.5883 7.04841 15.899 7.32786 16.2698 7.32786C16.2977 7.32786 16.3248 7.32617 16.3527 7.32277C16.5466 7.30153 16.7193 7.20555 16.8412 7.05265C16.9622 6.89976 17.0173 6.70949 16.9953 6.51497C16.6092 3.06634 13.9402 0.389827 10.5025 0.0067403Z" fill="#390651"/>
<path d="M10.5554 2.96645C10.1507 2.8917 9.77912 3.14992 9.70209 3.5449C9.62506 3.93988 9.88409 4.32551 10.2777 4.40281C11.4628 4.63385 12.3779 5.55122 12.6099 6.74041C12.6759 7.08272 12.9773 7.33245 13.3243 7.33245C13.3709 7.33245 13.4175 7.3282 13.4649 7.31971C13.8585 7.24071 14.1175 6.85593 14.0405 6.4601C13.6943 4.68397 12.3271 3.31216 10.5554 2.96645Z" fill="#390651"/>
<path d="M11.9001 11.127C12.2838 10.9057 12.7172 10.6558 13.264 10.7721C13.7592 10.8766 15.4471 12.2467 15.9093 12.7215C16.2124 13.0324 16.3809 13.3535 16.4071 13.6745C16.4528 14.9342 14.7411 16.3723 14.4296 16.5515C14.0157 16.8497 13.534 17 12.9931 17C12.4403 17 11.8241 16.8429 11.1519 16.5294C7.50513 15.0073 1.9342 9.54637 0.461262 5.92786C-0.149923 4.58068 -0.154156 3.46964 0.451103 2.63467C0.692361 2.24308 2.06795 0.606259 3.29963 0.658073C3.62723 0.686104 3.94552 0.854288 4.25789 1.16008C4.73024 1.62301 6.06605 3.3159 6.16932 3.81281C6.2836 4.36493 6.03303 4.80408 5.8104 5.18971C5.76291 5.27261 5.69893 5.37099 5.62884 5.47877C5.36282 5.88781 5.00875 6.43225 5.13403 6.77982C6.03219 8.98491 8.107 10.9088 10.313 11.8126C10.6542 11.9366 11.1983 11.58 11.606 11.3128C11.7123 11.2432 11.8092 11.1796 11.8909 11.1322L11.9001 11.127Z" fill="#390651"/>
</svg>
