<svg width="22" height="22" viewBox="0 0 22 22" fill="none" xmlns="http://www.w3.org/2000/svg">
<path d="M11.0021 2H10.9979C6.31119 2 2.5 5.81225 2.5 10.5C2.5 12.2136 3.00897 13.8117 3.88634 15.147C4.02671 15.3607 4.06989 15.626 3.98859 15.8684L3.55451 17.1624C3.34883 17.7755 3.92726 18.3622 4.54324 18.1653L5.96542 17.7107C6.19341 17.6378 6.44102 17.6742 6.64625 17.7974C7.92179 18.5631 9.40869 19 11.0021 19C15.6888 19 19.5 15.1867 19.5 10.5C19.5 5.81331 15.6888 2 11.0021 2ZM15.9481 14.0031C15.743 14.5821 14.9291 15.0624 14.2799 15.2026C13.8358 15.2972 13.2557 15.3726 11.3028 14.563C8.80487 13.5281 7.19625 10.9898 7.07088 10.8251C6.95081 10.6604 6.0615 9.48106 6.0615 8.26131C6.0615 7.04156 6.68094 6.44763 6.93062 6.19263C7.13569 5.98331 7.47463 5.88769 7.79975 5.88769C7.90494 5.88769 7.9995 5.893 8.0845 5.89725C8.33419 5.90788 8.45956 5.92275 8.62425 6.31694C8.82931 6.811 9.32869 8.03075 9.38819 8.15613C9.44875 8.2815 9.50931 8.4515 9.42431 8.61619C9.34462 8.78619 9.2745 8.86162 9.14913 9.00612C9.02375 9.15062 8.90475 9.26113 8.77938 9.41625C8.66462 9.55119 8.535 9.69569 8.6795 9.94537C8.824 10.1897 9.32337 11.0047 10.0586 11.6592C11.0074 12.5039 11.7767 12.7738 12.0519 12.8885C12.2569 12.9735 12.5013 12.9533 12.6511 12.7939C12.8413 12.5889 13.0761 12.2489 13.3152 11.9142C13.4852 11.6741 13.6998 11.6443 13.9251 11.7293C14.1546 11.809 15.369 12.4093 15.6187 12.5336C15.8684 12.659 16.0331 12.7185 16.0936 12.8237C16.1531 12.9289 16.1531 13.4229 15.9481 14.0031Z" fill="#19BE57"/>
</svg>
